<?xml version="1.0" encoding="iso-8859-1"?>
<!-- Uploaded to: SVG Repo, www.svgrepo.com, Generator: SVG Repo Mixer Tools -->
<svg fill="#000000" height="800px" width="800px" version="1.1" id="Layer_1" xmlns="http://www.w3.org/2000/svg" xmlns:xlink="http://www.w3.org/1999/xlink" 
	 viewBox="0 0 512 512" xml:space="preserve">
<g>
	<g>
		<path d="M194.987,57.532c-13.952-24.166-36.48-41.452-63.435-48.675C104.599,1.639,76.446,5.342,52.28,19.292
			C28.114,33.245,10.826,55.773,3.604,82.727C-3.617,109.681,0.089,137.835,14.041,162c19.329,33.478,54.515,52.213,90.649,52.213
			c17.711,0,35.65-4.502,52.058-13.974v-0.001C206.634,171.435,223.787,107.417,194.987,57.532z M32.136,151.554
			c-11.162-19.333-14.127-41.856-8.349-63.42c4.866-18.161,15.46-33.79,30.226-44.945l82.904,143.591
			C98.682,202.894,53.406,188.393,32.136,151.554z M155.011,176.333L72.103,32.734c10.286-4.352,21.221-6.58,32.274-6.58
			c7.259,0,14.567,0.955,21.767,2.885c21.563,5.778,39.585,19.607,50.747,38.94C198.162,104.822,188.083,151.281,155.011,176.333z"
			/>
	</g>
</g>
<g>
	<g>
		<path d="M170.997,346.24c-17.758-17.758-41.369-27.538-66.484-27.538c-25.114,0-48.725,9.78-66.483,27.538
			c-36.659,36.66-36.659,96.308,0,132.968c17.758,17.758,41.369,27.538,66.483,27.538c25.115,0,48.726-9.78,66.484-27.538
			C207.655,442.549,207.655,382.9,170.997,346.24z M104.513,485.852c-19.532,0-37.897-7.606-51.708-21.419
			c-26.004-26.004-28.28-66.873-6.852-95.495l102.356,102.357C135.735,480.739,120.518,485.852,104.513,485.852z M163.072,456.511
			L60.717,354.154c12.574-9.445,27.792-14.558,43.796-14.558c19.533,0,37.898,7.606,51.709,21.419
			C182.227,387.019,184.502,427.891,163.072,456.511z"/>
	</g>
</g>
<g>
	<g>
		<path d="M493.747,188.118c-37.444-64.853-120.667-87.155-185.52-49.709c-31.416,18.138-53.888,47.424-63.277,82.463
			c-9.388,35.04-4.57,71.639,13.569,103.055c18.138,31.416,47.424,53.888,82.463,63.278c11.701,3.134,23.573,4.685,35.371,4.685
			c23.532,0,46.758-6.172,67.684-18.254c31.416-18.138,53.888-47.424,63.278-82.463
			C516.703,256.132,511.885,219.534,493.747,188.118z M271.82,304.185c-24.654-53.298-4.97-117.762,46.854-147.682
			c18.052-10.424,37.781-15.373,57.265-15.373c36.447,0,71.983,17.377,94.031,48.651L271.82,304.185z M487.132,285.764
			c-7.945,29.65-26.96,54.43-53.543,69.778c-26.583,15.348-57.547,19.425-87.199,11.48c-26.259-7.035-48.683-22.768-64.134-44.737
			l198.199-114.432C491.756,232.219,494.169,259.505,487.132,285.764z"/>
	</g>
</g>
</svg>